<svg width="150" height="150" viewBox="0 0 150 150" fill="none" xmlns="http://www.w3.org/2000/svg">
<path d="M5 2.5C5 3.87982 3.87982 5 2.5 5C1.12018 5 0 3.87982 0 2.5C0 1.12018 1.12018 0 2.5 0C3.87982 0 5 1.12018 5 2.5Z" fill="#014B88"/>
<path d="M23.2046 2.5C23.2046 3.87982 22.0844 5 20.7046 5C19.3248 5 18.2046 3.87982 18.2046 2.5C18.2046 1.12018 19.3248 0 20.7046 0C22.0844 0 23.2046 1.12018 23.2046 2.5Z" fill="#014B88"/>
<path d="M41.4087 2.5C41.4087 3.87982 40.2885 5 38.9087 5C37.5289 5 36.4087 3.87982 36.4087 2.5C36.4087 1.12018 37.5289 0 38.9087 0C40.2922 0 41.4087 1.12018 41.4087 2.5Z" fill="#014B88"/>
<path d="M59.6187 2.5C59.6187 3.87982 58.4976 5 57.1168 5C55.7359 5 54.6187 3.87982 54.6187 2.5C54.6187 1.12018 55.7359 0 57.1168 0C58.5014 0 59.6187 1.12018 59.6187 2.5Z" fill="#014B88"/>
<path d="M77.8232 2.5C77.8232 3.87982 76.7068 5 75.3232 5C73.9434 5 72.8232 3.87982 72.8232 2.5C72.8232 1.12018 73.9434 0 75.3232 0C76.7031 0 77.8232 1.12018 77.8232 2.5Z" fill="#014B88"/>
<path d="M96.0273 2.5C96.0273 3.87982 94.9072 5 93.5273 5C92.1475 5 91.0273 3.87982 91.0273 2.5C91.0273 1.12018 92.1475 0 93.5273 0C94.9072 0 96.0273 1.12018 96.0273 2.5Z" fill="#014B88"/>
<path d="M114 2.5C114 3.87982 112.88 5 111.5 5C110.12 5 109 3.87982 109 2.5C109 1.12018 110.12 0 111.5 0C112.88 0 114 1.12018 114 2.5Z" fill="#014B88"/>
<path d="M131.973 2.5C131.973 3.87982 130.852 5 129.473 5C128.093 5 126.973 3.87982 126.973 2.5C126.973 1.12018 128.093 0 129.473 0C130.852 0 131.973 1.12018 131.973 2.5Z" fill="#014B88"/>
<path d="M149.945 2.5C149.945 3.87982 148.825 5 147.445 5C146.065 5 144.945 3.87982 144.945 2.5C144.945 1.12018 146.065 0 147.445 0C148.825 0 149.945 1.12018 149.945 2.5Z" fill="#014B88"/>
<path d="M5 20.7046C5 22.0844 3.87982 23.2046 2.5 23.2046C1.12018 23.2046 0 22.0844 0 20.7046C0 19.3248 1.12018 18.2046 2.5 18.2046C3.87982 18.2046 5 19.3248 5 20.7046Z" fill="#014B88"/>
<path d="M23.2046 20.7046C23.2046 22.0844 22.0844 23.2046 20.7046 23.2046C19.3248 23.2046 18.2046 22.0844 18.2046 20.7046C18.2046 19.3248 19.3248 18.2046 20.7046 18.2046C22.0844 18.2046 23.2046 19.3248 23.2046 20.7046Z" fill="#014B88"/>
<path d="M41.4092 20.7046C41.4092 22.0844 40.289 23.2046 38.9092 23.2046C37.5294 23.2046 36.4092 22.0844 36.4092 20.7046C36.4092 19.3248 37.5294 18.2046 38.9092 18.2046C40.2927 18.2046 41.4092 19.3248 41.4092 20.7046Z" fill="#014B88"/>
<path d="M59.6187 20.7046C59.6187 22.0844 58.4976 23.2046 57.1168 23.2046C55.7359 23.2046 54.6187 22.0844 54.6187 20.7046C54.6187 19.3248 55.7359 18.2046 57.1168 18.2046C58.5014 18.2046 59.6187 19.3248 59.6187 20.7046Z" fill="#014B88"/>
<path d="M77.8232 20.7046C77.8232 22.0844 76.7068 23.2046 75.3232 23.2046C73.9434 23.2046 72.8232 22.0844 72.8232 20.7046C72.8232 19.3248 73.9434 18.2046 75.3232 18.2046C76.7031 18.2046 77.8232 19.3248 77.8232 20.7046Z" fill="#014B88"/>
<path d="M96.0273 20.7046C96.0273 22.0844 94.9072 23.2046 93.5273 23.2046C92.1475 23.2046 91.0273 22.0844 91.0273 20.7046C91.0273 19.3248 92.1475 18.2046 93.5273 18.2046C94.9072 18.2046 96.0273 19.3248 96.0273 20.7046Z" fill="#014B88"/>
<path d="M114 20.7046C114 22.0844 112.88 23.2046 111.5 23.2046C110.12 23.2046 109 22.0844 109 20.7046C109 19.3248 110.12 18.2046 111.5 18.2046C112.88 18.2046 114 19.3248 114 20.7046Z" fill="#014B88"/>
<path d="M131.973 20.7046C131.973 22.0844 130.852 23.2046 129.473 23.2046C128.093 23.2046 126.973 22.0844 126.973 20.7046C126.973 19.3248 128.093 18.2046 129.473 18.2046C130.852 18.2046 131.973 19.3248 131.973 20.7046Z" fill="#014B88"/>
<path d="M149.945 20.7046C149.945 22.0844 148.825 23.2046 147.445 23.2046C146.065 23.2046 144.945 22.0844 144.945 20.7046C144.945 19.3248 146.065 18.2046 147.445 18.2046C148.825 18.2046 149.945 19.3248 149.945 20.7046Z" fill="#014B88"/>
<path d="M5 38.9089C5 40.2888 3.87982 41.4089 2.5 41.4089C1.12018 41.4089 0 40.2888 0 38.9089C0 37.5291 1.12018 36.4089 2.5 36.4089C3.87982 36.4089 5 37.5291 5 38.9089Z" fill="#014B88"/>
<path d="M23.2046 38.9089C23.2046 40.2888 22.0844 41.4089 20.7046 41.4089C19.3248 41.4089 18.2046 40.2888 18.2046 38.9089C18.2046 37.5291 19.3248 36.4089 20.7046 36.4089C22.0844 36.4089 23.2046 37.5291 23.2046 38.9089Z" fill="#014B88"/>
<path d="M41.4092 38.9089C41.4092 40.2888 40.289 41.4089 38.9092 41.4089C37.5294 41.4089 36.4092 40.2888 36.4092 38.9089C36.4092 37.5291 37.5294 36.4089 38.9092 36.4089C40.2927 36.4089 41.4092 37.5291 41.4092 38.9089Z" fill="#014B88"/>
<path d="M59.6187 38.9089C59.6187 40.2888 58.4976 41.4089 57.1168 41.4089C55.7359 41.4089 54.6187 40.2888 54.6187 38.9089C54.6187 37.5291 55.7359 36.4089 57.1168 36.4089C58.5014 36.4089 59.6187 37.5291 59.6187 38.9089Z" fill="#014B88"/>
<path d="M77.8232 38.9089C77.8232 40.2888 76.7068 41.4089 75.3232 41.4089C73.9434 41.4089 72.8232 40.2888 72.8232 38.9089C72.8232 37.5291 73.9434 36.4089 75.3232 36.4089C76.7031 36.4089 77.8232 37.5291 77.8232 38.9089Z" fill="#014B88"/>
<path d="M96.0273 38.9089C96.0273 40.2888 94.9072 41.4089 93.5273 41.4089C92.1475 41.4089 91.0273 40.2888 91.0273 38.9089C91.0273 37.5291 92.1475 36.4089 93.5273 36.4089C94.9072 36.4089 96.0273 37.5291 96.0273 38.9089Z" fill="#014B88"/>
<path d="M114 38.9089C114 40.2888 112.88 41.4089 111.5 41.4089C110.12 41.4089 109 40.2888 109 38.9089C109 37.5291 110.12 36.4089 111.5 36.4089C112.88 36.4089 114 37.5291 114 38.9089Z" fill="#014B88"/>
<path d="M131.973 38.9089C131.973 40.2888 130.852 41.4089 129.473 41.4089C128.093 41.4089 126.973 40.2888 126.973 38.9089C126.973 37.5291 128.093 36.4089 129.473 36.4089C130.852 36.4089 131.973 37.5291 131.973 38.9089Z" fill="#014B88"/>
<path d="M149.945 38.9089C149.945 40.2888 148.825 41.4089 147.445 41.4089C146.065 41.4089 144.945 40.2888 144.945 38.9089C144.945 37.5291 146.065 36.4089 147.445 36.4089C148.825 36.4089 149.945 37.5291 149.945 38.9089Z" fill="#014B88"/>
<path d="M5 57.1135C5 58.4933 3.87982 59.6135 2.5 59.6135C1.12018 59.6135 0 58.4933 0 57.1135C0 55.7337 1.12018 54.6135 2.5 54.6135C3.87982 54.6172 5 55.7337 5 57.1135Z" fill="#014B88"/>
<path d="M23.2046 57.1135C23.2046 58.4933 22.0844 59.6135 20.7046 59.6135C19.3248 59.6135 18.2046 58.4933 18.2046 57.1135C18.2046 55.7337 19.3248 54.6135 20.7046 54.6135C22.0844 54.6172 23.2046 55.7337 23.2046 57.1135Z" fill="#014B88"/>
<path d="M41.4092 57.1135C41.4092 58.4933 40.289 59.6135 38.9092 59.6135C37.5294 59.6135 36.4092 58.4933 36.4092 57.1135C36.4092 55.7337 37.5294 54.6135 38.9092 54.6135C40.2927 54.6172 41.4092 55.7337 41.4092 57.1135Z" fill="#014B88"/>
<path d="M59.6187 57.1135C59.6187 58.4933 58.4976 59.6135 57.1168 59.6135C55.7359 59.6135 54.6187 58.4933 54.6187 57.1135C54.6187 55.7337 55.7359 54.6135 57.1168 54.6135C58.5014 54.6172 59.6187 55.7337 59.6187 57.1135Z" fill="#014B88"/>
<path d="M77.8232 57.1135C77.8232 58.4933 76.7068 59.6135 75.3232 59.6135C73.9434 59.6135 72.8232 58.4933 72.8232 57.1135C72.8232 55.7337 73.9434 54.6135 75.3232 54.6135C76.7031 54.6172 77.8232 55.7337 77.8232 57.1135Z" fill="#014B88"/>
<path d="M96.0273 57.1135C96.0273 58.4933 94.9072 59.6135 93.5273 59.6135C92.1475 59.6135 91.0273 58.4933 91.0273 57.1135C91.0273 55.7337 92.1475 54.6135 93.5273 54.6135C94.9072 54.6172 96.0273 55.7337 96.0273 57.1135Z" fill="#014B88"/>
<path d="M114 57.1135C114 58.4933 112.88 59.6135 111.5 59.6135C110.12 59.6135 109 58.4933 109 57.1135C109 55.7337 110.12 54.6135 111.5 54.6135C112.88 54.6172 114 55.7337 114 57.1135Z" fill="#014B88"/>
<path d="M131.973 57.1135C131.973 58.4933 130.852 59.6135 129.473 59.6135C128.093 59.6135 126.973 58.4933 126.973 57.1135C126.973 55.7337 128.093 54.6135 129.473 54.6135C130.852 54.6172 131.973 55.7337 131.973 57.1135Z" fill="#014B88"/>
<path d="M149.945 57.1135C149.945 58.4933 148.825 59.6135 147.445 59.6135C146.065 59.6135 144.945 58.4933 144.945 57.1135C144.945 55.7337 146.065 54.6135 147.445 54.6135C148.825 54.6172 149.945 55.7337 149.945 57.1135Z" fill="#014B88"/>
<path d="M5 75.3232C5 76.7031 3.87982 77.8232 2.5 77.8232C1.12018 77.8232 0 76.7031 0 75.3232C0 73.9434 1.12018 72.8232 2.5 72.8232C3.87982 72.8232 5 73.9434 5 75.3232Z" fill="#014B88"/>
<path d="M23.2046 75.3232C23.2046 76.7031 22.0844 77.8232 20.7046 77.8232C19.3248 77.8232 18.2046 76.7031 18.2046 75.3232C18.2046 73.9434 19.3248 72.8232 20.7046 72.8232C22.0844 72.8232 23.2046 73.9434 23.2046 75.3232Z" fill="#014B88"/>
<path d="M41.4092 75.3232C41.4092 76.7031 40.289 77.8232 38.9092 77.8232C37.5294 77.8232 36.4092 76.7031 36.4092 75.3232C36.4092 73.9434 37.5294 72.8232 38.9092 72.8232C40.2927 72.8232 41.4092 73.9434 41.4092 75.3232Z" fill="#014B88"/>
<path d="M59.6187 75.3232C59.6187 76.7031 58.4976 77.8232 57.1168 77.8232C55.7359 77.8232 54.6187 76.7031 54.6187 75.3232C54.6187 73.9434 55.7359 72.8232 57.1168 72.8232C58.5014 72.8232 59.6187 73.9434 59.6187 75.3232Z" fill="#014B88"/>
<path d="M77.8232 75.3232C77.8232 76.7031 76.7068 77.8232 75.3232 77.8232C73.9434 77.8232 72.8232 76.7031 72.8232 75.3232C72.8232 73.9434 73.9434 72.8232 75.3232 72.8232C76.7031 72.8232 77.8232 73.9434 77.8232 75.3232Z" fill="#014B88"/>
<path d="M96.0273 75.3232C96.0273 76.7031 94.9072 77.8232 93.5273 77.8232C92.1475 77.8232 91.0273 76.7031 91.0273 75.3232C91.0273 73.9434 92.1475 72.8232 93.5273 72.8232C94.9072 72.8232 96.0273 73.9434 96.0273 75.3232Z" fill="#014B88"/>
<path d="M114 75.3232C114 76.7031 112.88 77.8232 111.5 77.8232C110.12 77.8232 109 76.7031 109 75.3232C109 73.9434 110.12 72.8232 111.5 72.8232C112.88 72.8232 114 73.9434 114 75.3232Z" fill="#014B88"/>
<path d="M131.973 75.3232C131.973 76.7031 130.852 77.8232 129.473 77.8232C128.093 77.8232 126.973 76.7031 126.973 75.3232C126.973 73.9434 128.093 72.8232 129.473 72.8232C130.852 72.8232 131.973 73.9434 131.973 75.3232Z" fill="#014B88"/>
<path d="M149.945 75.3232C149.945 76.7031 148.825 77.8232 147.445 77.8232C146.065 77.8232 144.945 76.7031 144.945 75.3232C144.945 73.9434 146.065 72.8232 147.445 72.8232C148.825 72.8232 149.945 73.9434 149.945 75.3232Z" fill="#014B88"/>
<path d="M5 93.5276C5 94.9074 3.87982 96.0276 2.5 96.0276C1.12018 96.0276 0 94.9074 0 93.5276C0 92.1478 1.12018 91.0276 2.5 91.0276C3.87982 91.0276 5 92.1478 5 93.5276Z" fill="#014B88"/>
<path d="M5 111.5C5 112.88 3.87982 114 2.5 114C1.12018 114 0 112.88 0 111.5C0 110.12 1.12018 109 2.5 109C3.87982 109 5 110.12 5 111.5Z" fill="#014B88"/>
<path d="M5 129.472C5 130.852 3.87982 131.972 2.5 131.972C1.12018 131.972 0 130.852 0 129.472C0 128.093 1.12018 126.972 2.5 126.972C3.87982 126.972 5 128.093 5 129.472Z" fill="#014B88"/>
<path d="M5 147.445C5 148.825 3.87982 149.945 2.5 149.945C1.12018 149.945 0 148.825 0 147.445C0 146.065 1.12018 144.945 2.5 144.945C3.87982 144.945 5 146.065 5 147.445Z" fill="#014B88"/>
<path d="M23.2046 93.5276C23.2046 94.9074 22.0844 96.0276 20.7046 96.0276C19.3248 96.0276 18.2046 94.9074 18.2046 93.5276C18.2046 92.1478 19.3248 91.0276 20.7046 91.0276C22.0844 91.0276 23.2046 92.1478 23.2046 93.5276Z" fill="#014B88"/>
<path d="M23.2046 111.5C23.2046 112.88 22.0844 114 20.7046 114C19.3248 114 18.2046 112.88 18.2046 111.5C18.2046 110.12 19.3248 109 20.7046 109C22.0844 109 23.2046 110.12 23.2046 111.5Z" fill="#014B88"/>
<path d="M23.2046 129.472C23.2046 130.852 22.0844 131.972 20.7046 131.972C19.3248 131.972 18.2046 130.852 18.2046 129.472C18.2046 128.093 19.3248 126.972 20.7046 126.972C22.0844 126.972 23.2046 128.093 23.2046 129.472Z" fill="#014B88"/>
<path d="M23.2046 147.445C23.2046 148.825 22.0844 149.945 20.7046 149.945C19.3248 149.945 18.2046 148.825 18.2046 147.445C18.2046 146.065 19.3248 144.945 20.7046 144.945C22.0844 144.945 23.2046 146.065 23.2046 147.445Z" fill="#014B88"/>
<path d="M41.4092 93.5276C41.4092 94.9074 40.289 96.0276 38.9092 96.0276C37.5294 96.0276 36.4092 94.9074 36.4092 93.5276C36.4092 92.1478 37.5294 91.0276 38.9092 91.0276C40.2927 91.0276 41.4092 92.1478 41.4092 93.5276Z" fill="#014B88"/>
<path d="M41.4092 111.5C41.4092 112.88 40.289 114 38.9092 114C37.5294 114 36.4092 112.88 36.4092 111.5C36.4092 110.12 37.5294 109 38.9092 109C40.2927 109 41.4092 110.12 41.4092 111.5Z" fill="#014B88"/>
<path d="M41.4092 129.472C41.4092 130.852 40.289 131.972 38.9092 131.972C37.5294 131.972 36.4092 130.852 36.4092 129.472C36.4092 128.093 37.5294 126.972 38.9092 126.972C40.2927 126.972 41.4092 128.093 41.4092 129.472Z" fill="#014B88"/>
<path d="M41.4092 147.445C41.4092 148.825 40.289 149.945 38.9092 149.945C37.5294 149.945 36.4092 148.825 36.4092 147.445C36.4092 146.065 37.5294 144.945 38.9092 144.945C40.2927 144.945 41.4092 146.065 41.4092 147.445Z" fill="#014B88"/>
<path d="M59.6187 93.5276C59.6187 94.9074 58.4976 96.0276 57.1168 96.0276C55.7359 96.0276 54.6187 94.9074 54.6187 93.5276C54.6187 92.1478 55.7359 91.0276 57.1168 91.0276C58.5014 91.0276 59.6187 92.1478 59.6187 93.5276Z" fill="#014B88"/>
<path d="M59.6187 111.5C59.6187 112.88 58.4976 114 57.1168 114C55.7359 114 54.6187 112.88 54.6187 111.5C54.6187 110.12 55.7359 109 57.1168 109C58.5014 109 59.6187 110.12 59.6187 111.5Z" fill="#014B88"/>
<path d="M59.6187 129.472C59.6187 130.852 58.4976 131.972 57.1168 131.972C55.7359 131.972 54.6187 130.852 54.6187 129.472C54.6187 128.093 55.7359 126.972 57.1168 126.972C58.5014 126.972 59.6187 128.093 59.6187 129.472Z" fill="#014B88"/>
<path d="M59.6187 147.445C59.6187 148.825 58.4976 149.945 57.1168 149.945C55.7359 149.945 54.6187 148.825 54.6187 147.445C54.6187 146.065 55.7359 144.945 57.1168 144.945C58.5014 144.945 59.6187 146.065 59.6187 147.445Z" fill="#014B88"/>
<path d="M77.8232 93.5276C77.8232 94.9074 76.7068 96.0276 75.3232 96.0276C73.9434 96.0276 72.8232 94.9074 72.8232 93.5276C72.8232 92.1478 73.9434 91.0276 75.3232 91.0276C76.7031 91.0276 77.8232 92.1478 77.8232 93.5276Z" fill="#014B88"/>
<path d="M77.8232 111.5C77.8232 112.88 76.7068 114 75.3232 114C73.9434 114 72.8232 112.88 72.8232 111.5C72.8232 110.12 73.9434 109 75.3232 109C76.7031 109 77.8232 110.12 77.8232 111.5Z" fill="#014B88"/>
<path d="M77.8232 129.472C77.8232 130.852 76.7068 131.972 75.3232 131.972C73.9434 131.972 72.8232 130.852 72.8232 129.472C72.8232 128.093 73.9434 126.972 75.3232 126.972C76.7031 126.972 77.8232 128.093 77.8232 129.472Z" fill="#014B88"/>
<path d="M77.8232 147.445C77.8232 148.825 76.7068 149.945 75.3232 149.945C73.9434 149.945 72.8232 148.825 72.8232 147.445C72.8232 146.065 73.9434 144.945 75.3232 144.945C76.7031 144.945 77.8232 146.065 77.8232 147.445Z" fill="#014B88"/>
<path d="M96.0273 93.5276C96.0273 94.9074 94.9072 96.0276 93.5273 96.0276C92.1475 96.0276 91.0273 94.9074 91.0273 93.5276C91.0273 92.1478 92.1475 91.0276 93.5273 91.0276C94.9072 91.0276 96.0273 92.1478 96.0273 93.5276Z" fill="#014B88"/>
<path d="M96.0273 111.5C96.0273 112.88 94.9072 114 93.5273 114C92.1475 114 91.0273 112.88 91.0273 111.5C91.0273 110.12 92.1475 109 93.5273 109C94.9072 109 96.0273 110.12 96.0273 111.5Z" fill="#014B88"/>
<path d="M96.0273 129.472C96.0273 130.852 94.9072 131.972 93.5273 131.972C92.1475 131.972 91.0273 130.852 91.0273 129.472C91.0273 128.093 92.1475 126.972 93.5273 126.972C94.9072 126.972 96.0273 128.093 96.0273 129.472Z" fill="#014B88"/>
<path d="M96.0273 147.445C96.0273 148.825 94.9072 149.945 93.5273 149.945C92.1475 149.945 91.0273 148.825 91.0273 147.445C91.0273 146.065 92.1475 144.945 93.5273 144.945C94.9072 144.945 96.0273 146.065 96.0273 147.445Z" fill="#014B88"/>
<path d="M114 93.5276C114 94.9074 112.88 96.0276 111.5 96.0276C110.12 96.0276 109 94.9074 109 93.5276C109 92.1478 110.12 91.0276 111.5 91.0276C112.88 91.0276 114 92.1478 114 93.5276Z" fill="#014B88"/>
<path d="M114 111.5C114 112.88 112.88 114 111.5 114C110.12 114 109 112.88 109 111.5C109 110.12 110.12 109 111.5 109C112.88 109 114 110.12 114 111.5Z" fill="#014B88"/>
<path d="M114 129.472C114 130.852 112.88 131.972 111.5 131.972C110.12 131.972 109 130.852 109 129.472C109 128.093 110.12 126.972 111.5 126.972C112.88 126.972 114 128.093 114 129.472Z" fill="#014B88"/>
<path d="M114 147.445C114 148.825 112.88 149.945 111.5 149.945C110.12 149.945 109 148.825 109 147.445C109 146.065 110.12 144.945 111.5 144.945C112.88 144.945 114 146.065 114 147.445Z" fill="#014B88"/>
<path d="M131.973 93.5276C131.973 94.9074 130.852 96.0276 129.473 96.0276C128.093 96.0276 126.973 94.9074 126.973 93.5276C126.973 92.1478 128.093 91.0276 129.473 91.0276C130.852 91.0276 131.973 92.1478 131.973 93.5276Z" fill="#014B88"/>
<path d="M131.973 111.5C131.973 112.88 130.852 114 129.473 114C128.093 114 126.973 112.88 126.973 111.5C126.973 110.12 128.093 109 129.473 109C130.852 109 131.973 110.12 131.973 111.5Z" fill="#014B88"/>
<path d="M131.973 129.472C131.973 130.852 130.852 131.972 129.473 131.972C128.093 131.972 126.973 130.852 126.973 129.472C126.973 128.093 128.093 126.972 129.473 126.972C130.852 126.972 131.973 128.093 131.973 129.472Z" fill="#014B88"/>
<path d="M131.973 147.445C131.973 148.825 130.852 149.945 129.473 149.945C128.093 149.945 126.973 148.825 126.973 147.445C126.973 146.065 128.093 144.945 129.473 144.945C130.852 144.945 131.973 146.065 131.973 147.445Z" fill="#014B88"/>
<path d="M149.945 93.5276C149.945 94.9074 148.825 96.0276 147.445 96.0276C146.065 96.0276 144.945 94.9074 144.945 93.5276C144.945 92.1478 146.065 91.0276 147.445 91.0276C148.825 91.0276 149.945 92.1478 149.945 93.5276Z" fill="#014B88"/>
<path d="M149.945 111.5C149.945 112.88 148.825 114 147.445 114C146.065 114 144.945 112.88 144.945 111.5C144.945 110.12 146.065 109 147.445 109C148.825 109 149.945 110.12 149.945 111.5Z" fill="#014B88"/>
<path d="M149.945 129.472C149.945 130.852 148.825 131.972 147.445 131.972C146.065 131.972 144.945 130.852 144.945 129.472C144.945 128.093 146.065 126.972 147.445 126.972C148.825 126.972 149.945 128.093 149.945 129.472Z" fill="#014B88"/>
<path d="M149.945 147.445C149.945 148.825 148.825 149.945 147.445 149.945C146.065 149.945 144.945 148.825 144.945 147.445C144.945 146.065 146.065 144.945 147.445 144.945C148.825 144.945 149.945 146.065 149.945 147.445Z" fill="#014B88"/>
</svg>
