<svg width="6" height="12" viewBox="0 0 6 12" fill="none" xmlns="http://www.w3.org/2000/svg">
<path d="M5.57 0.502L4.183 0.5C2.623 0.5 1.615 1.563 1.615 3.207V4.455H0.218C0.098 4.455 0 4.555 0 4.679V6.487C0 6.611 0.098 6.711 0.218 6.711H1.614V11.274C1.614 11.398 1.712 11.498 1.832 11.498H3.654C3.774 11.498 3.872 11.398 3.872 11.274V6.712H5.504C5.624 6.712 5.722 6.612 5.722 6.488V4.68C5.722 4.62 5.699 4.563 5.658 4.52C5.617 4.477 5.561 4.454 5.503 4.454H3.873V3.397C3.873 2.897 3.991 2.63 4.636 2.63H5.571C5.691 2.63 5.789 2.53 5.789 2.406V0.727C5.79 0.603 5.692 0.503 5.57 0.502Z" fill="white"/>
</svg>
