<svg width="29" height="29" viewBox="0 0 29 29" fill="none" xmlns="http://www.w3.org/2000/svg">
<path d="M28.9998 14.8335C28.9998 13.8479 28.9183 12.8569 28.7444 11.8873H14.792V17.4708H22.7819C22.4503 19.2715 21.385 20.8646 19.8251 21.8768V25.4997H24.5918C27.391 22.9743 28.9998 19.2449 28.9998 14.8335Z" fill="#4285F4"/>
<path d="M14.7924 29.0001C18.7819 29.0001 22.1463 27.7161 24.5976 25.4998L19.8309 21.8769C18.5047 22.7613 16.7925 23.2621 14.7978 23.2621C10.9387 23.2621 7.66669 20.7101 6.49267 17.2791H1.57373V21.0138C4.08483 25.91 9.19944 29.0001 14.7924 29.0001Z" fill="#34A853"/>
<path d="M6.48702 17.2791C5.8674 15.4783 5.8674 13.5283 6.48702 11.7276V7.9928H1.57352C-0.524506 12.0898 -0.524506 16.9168 1.57352 21.0139L6.48702 17.2791Z" fill="#FBBC04"/>
<path d="M14.7924 5.73898C16.9013 5.70701 18.9395 6.48487 20.4668 7.91271L24.69 3.77304C22.0159 1.31161 18.4666 -0.041645 14.7924 0.000977105C9.19944 0.000977105 4.08483 3.09108 1.57373 7.99263L6.48723 11.7274C7.65582 8.29098 10.9333 5.73898 14.7924 5.73898Z" fill="#EA4335"/>
</svg>
