<svg width="10" height="10" viewBox="0 0 10 10" fill="none" xmlns="http://www.w3.org/2000/svg">
<path d="M7.29308 0H2.7069C1.21429 0 0 1.21429 0 2.7069V7.29315C0 8.78569 1.21429 9.99998 2.7069 9.99998H7.29315C8.78569 9.99998 9.99998 8.78569 9.99998 7.29315V2.7069C9.99998 1.21429 8.78569 0 7.29308 0V0ZM4.99999 7.73428C3.49227 7.73428 2.2657 6.50771 2.2657 4.99999C2.2657 3.49227 3.49227 2.2657 4.99999 2.2657C6.50771 2.2657 7.73428 3.49227 7.73428 4.99999C7.73428 6.50771 6.50771 7.73428 4.99999 7.73428ZM7.79967 2.91053C7.35411 2.91053 6.99172 2.54814 6.99172 2.10258C6.99172 1.65702 7.35411 1.29455 7.79967 1.29455C8.24522 1.29455 8.60769 1.65702 8.60769 2.10258C8.60769 2.54814 8.24522 2.91053 7.79967 2.91053Z" fill="white"/>
<path d="M5.0001 2.85193C3.81572 2.85193 2.85205 3.81552 2.85205 4.99998C2.85205 6.18437 3.81572 7.14803 5.0001 7.14803C6.18457 7.14803 7.14816 6.18437 7.14816 4.99998C7.14816 3.81552 6.18457 2.85193 5.0001 2.85193Z" fill="white"/>
<path d="M7.79983 1.88086C7.67761 1.88086 7.57812 1.98035 7.57812 2.10257C7.57812 2.22479 7.67761 2.32428 7.79983 2.32428C7.92213 2.32428 8.02162 2.22487 8.02162 2.10257C8.02162 1.98027 7.92213 1.88086 7.79983 1.88086Z" fill="white"/>
</svg>
