<svg width="10" height="10" viewBox="0 0 10 10" fill="none" xmlns="http://www.w3.org/2000/svg">
<path d="M9.998 10H10V6.332C10 4.538 9.614 3.156 7.516 3.156C6.508 3.156 5.831 3.709 5.556 4.234H5.526V3.334H3.526V10H5.596V6.694C5.596 5.824 5.761 4.982 6.839 4.982C7.901 4.982 7.917 5.975 7.917 6.75V10H9.987H9.998ZM0.165002 3.324H2.238V10H0.165002V3.324ZM1.2 0C1.04233 -5.47466e-08 0.886207 0.0310719 0.740551 0.0914401C0.594895 0.151808 0.462563 0.240289 0.35112 0.351825C0.239676 0.463362 0.151306 0.595767 0.0910591 0.741473C0.0308123 0.887179 -0.000129668 1.04333 1.7243e-06 1.201C-0.000537339 1.52053 0.125337 1.82731 0.350155 2.05437C0.574972 2.28144 0.880479 2.41036 1.2 2.413C1.862 2.413 2.4 1.863 2.4 1.201C2.40013 1.04341 2.36922 0.887345 2.30904 0.741704C2.24886 0.596063 2.16057 0.463702 2.04924 0.352179C1.9379 0.240656 1.80569 0.152154 1.66015 0.0917271C1.51461 0.0313002 1.35859 0.000131267 1.201 0H1.2Z" fill="white"/>
</svg>
