<svg width="86" height="59" viewBox="0 0 86 59" fill="none" xmlns="http://www.w3.org/2000/svg">
<path d="M18.4495 21.9711C23.5316 21.9711 27.877 23.7755 31.4858 27.3843C35.0945 30.993 36.8989 35.3384 36.8989 40.4206V54.9944C36.8989 56.0834 36.5146 56.9909 35.7458 57.717C34.9771 58.4857 34.0696 58.8701 33.0232 58.8701H32.9272C31.8808 58.8701 30.9733 58.4857 30.2046 57.717C29.4359 56.9909 29.0515 56.0834 29.0515 54.9944C26.6172 57.5782 23.0832 58.8701 18.4495 58.8701C13.3673 58.8701 9.02187 57.0657 5.41312 53.4569C1.80437 49.8482 0 45.5027 0 40.4206C0 35.3384 1.80437 30.993 5.41312 27.3843C9.02187 23.7755 13.3673 21.9711 18.4495 21.9711ZM18.4495 29.8186C15.5027 29.8186 12.9936 30.8542 10.9223 32.9255C8.8724 34.9968 7.84743 37.4952 7.84743 40.4206C7.84743 43.3674 8.8724 45.8764 10.9223 47.9477C12.9936 49.9977 15.5027 51.0226 18.4495 51.0226C21.3962 51.0226 23.8946 49.9977 25.9446 47.9477C28.0158 45.8764 29.0515 43.3674 29.0515 40.4206C29.0515 37.4952 28.0158 34.9968 25.9446 32.9255C23.8733 30.8542 21.3749 29.8186 18.4495 29.8186Z" fill="white"/>
<path d="M55.9762 21.9711C57.0438 21.9711 57.962 22.3555 58.7308 23.1242C59.4782 23.8929 59.8518 24.8112 59.8518 25.8788V25.9429C59.8518 27.0106 59.4782 27.9181 58.7308 28.6655C57.962 29.4342 57.0438 29.8186 55.9762 29.8186H54.1504C52.3995 29.8186 50.9154 30.4271 49.6982 31.6443C48.5024 32.8614 47.8939 34.3455 47.8725 36.0965V54.9944C47.8725 56.0834 47.4881 56.9909 46.7194 57.717C45.9507 58.4857 45.0432 58.8701 43.9968 58.8701H43.9007C42.8544 58.8701 41.9469 58.4857 41.1782 57.717C40.4094 56.9909 40.0251 56.0834 40.0251 54.9944V36.0965C40.0678 32.1888 41.4451 28.8576 44.157 26.103C46.9116 23.3484 50.2427 21.9711 54.1504 21.9711H55.9762Z" fill="white"/>
<path d="M77.6158 21.9711C79.5377 21.9711 81.3954 22.2594 83.1891 22.8359C85.0042 23.4125 85.9117 24.651 85.9117 26.5515V26.7116C85.9117 28.0142 85.3885 29.0498 84.3422 29.8186C83.6162 30.331 82.8688 30.5873 82.1001 30.5873C81.6944 30.5873 81.278 30.5232 80.8509 30.3951C79.8046 30.0534 78.7262 29.8826 77.6158 29.8826C74.6691 29.8826 72.16 30.9183 70.0887 32.9896C68.0388 35.0609 67.0138 37.5699 67.0138 40.5167C67.0138 43.4421 68.0388 45.9405 70.0887 48.0118C72.16 50.0831 74.6691 51.1187 77.6158 51.1187C78.7262 51.1187 79.8046 50.9479 80.8509 50.6062C81.2566 50.4781 81.6623 50.414 82.0681 50.414C82.8581 50.414 83.6162 50.6703 84.3422 51.1828C85.3885 51.9515 85.9117 52.9978 85.9117 54.3217C85.9117 56.2009 85.0042 57.4394 83.1891 58.0373C81.3954 58.5925 79.5377 58.8701 77.6158 58.8701C72.5337 58.8701 68.1883 57.0657 64.5795 53.4569C60.9708 49.8482 59.1664 45.5027 59.1664 40.4206C59.1664 35.3384 60.9708 30.993 64.5795 27.3843C68.1883 23.7755 72.5337 21.9711 77.6158 21.9711Z" fill="white"/>
<rect x="19.5039" y="12.4882" width="17.661" height="6.72801" rx="3.364" transform="rotate(-45 19.5039 12.4882)" fill="white"/>
<rect x="32.2808" y="25.0187" width="13.4973" height="6.72801" rx="3.364" transform="rotate(-45 32.2808 25.0187)" fill="white"/>
<rect x="25.7651" y="18.756" width="21.025" height="6.72801" rx="3.364" transform="rotate(-45 25.7651 18.756)" fill="white"/>
</svg>
