<svg width="68" height="62" viewBox="0 0 68 62" fill="none" xmlns="http://www.w3.org/2000/svg">
<path d="M46.5287 33.1427H4.24475C2.62332 33.1427 1.30859 31.828 1.30859 30.2061V3.86194C1.30859 2.24051 2.62332 0.925781 4.24475 0.925781H46.5287C48.1501 0.925781 49.4648 2.24051 49.4648 3.86194V30.2061C49.4648 31.828 48.1501 33.1427 46.5287 33.1427Z" fill="white"/>
<path d="M20.5908 33.1427H29.9871V41.1563H20.5908V33.1427Z" fill="#7D52DC"/>
<path d="M63.0742 60.066H44.2305C42.7849 60.066 41.6133 58.8944 41.6133 57.4488V30.615C41.6133 29.1699 42.7849 27.9978 44.2305 27.9978H63.0742C64.5198 27.9978 65.6914 29.1699 65.6914 30.615V57.4488C65.6914 58.8939 64.5198 60.066 63.0742 60.066Z" fill="#61C1E3"/>
<path d="M63.0742 27.9978H44.2305C42.7849 27.9978 41.6133 29.1699 41.6133 30.615V54.8235H65.6914V30.615C65.6914 29.1699 64.5198 27.9978 63.0742 27.9978Z" fill="#FFE1C1"/>
<path d="M22.6392 16.3672C22.6392 17.8123 21.467 18.9844 20.022 18.9844C18.5764 18.9844 17.4048 17.8123 17.4048 16.3672C17.4048 14.9216 18.5764 13.75 20.022 13.75C21.467 13.75 22.6392 14.9216 22.6392 16.3672Z" fill="#61C1E3"/>
<path d="M31.6245 8.77734C31.6245 10.2224 30.4529 11.3945 29.0073 11.3945C27.5617 11.3945 26.3901 10.2224 26.3901 8.77734C26.3901 7.33176 27.5617 6.16016 29.0073 6.16016C30.4529 6.16016 31.6245 7.33176 31.6245 8.77734Z" fill="#7D52DC"/>
<path d="M36.0737 23.957C36.0737 25.4021 34.9021 26.5742 33.4565 26.5742C32.011 26.5742 30.8394 25.4021 30.8394 23.957C30.8394 22.5114 32.011 21.3398 33.4565 21.3398C34.9021 21.3398 36.0737 22.5114 36.0737 23.957Z" fill="#7D52DC"/>
<path d="M63.3219 27.1784H50.9729V4.26142C50.9729 1.91158 49.0613 0 46.7114 0H4.26142C1.91158 0 0 1.91158 0 4.26142V30.709C0 33.0589 1.91158 34.971 4.26142 34.971H19.3581V40.3886H17.6738C16.9482 40.3886 16.3601 40.9767 16.3601 41.7023C16.3601 42.4279 16.9482 43.016 17.6738 43.016H33.1025C33.8281 43.016 34.4162 42.4279 34.4162 41.7023C34.4162 40.9767 33.8281 40.3886 33.1025 40.3886H31.4188V34.971H40.463V58.0588C40.463 60.2316 42.2309 62 44.4042 62H63.3219C65.4952 62 67.2631 60.2316 67.2631 58.0588V31.1196C67.2631 28.9463 65.4952 27.1784 63.3219 27.1784ZM64.6357 31.1196V54.1094H43.0905V31.1196C43.0905 30.395 43.6796 29.8058 44.4042 29.8058H63.3219C64.0466 29.8058 64.6357 30.395 64.6357 31.1196ZM28.7908 40.3886H21.9855V34.971H28.7913L28.7908 40.3886ZM4.26142 32.3435C3.36028 32.3435 2.62747 31.6102 2.62747 30.7095V18.1295H16.3852C16.9277 19.6588 18.3876 20.757 20.1006 20.757C22.2734 20.757 24.0418 18.9891 24.0418 16.8158C24.0418 14.6425 22.2734 12.8746 20.1006 12.8746C18.3876 12.8746 16.9277 13.9728 16.3852 15.5021H2.62747V7.92602H16.4904L18.6894 10.125C18.9357 10.3713 19.2698 10.5099 19.6182 10.5099H25.4059C25.9483 12.0386 27.4088 13.1373 29.1213 13.1373C31.2946 13.1373 33.0625 11.3689 33.0625 9.19613C33.0625 7.02283 31.2946 5.25493 29.1213 5.25493C27.4088 5.25493 25.9483 6.35313 25.4059 7.8824H20.1627L17.9638 5.68344C17.7174 5.43711 17.3828 5.29855 17.0344 5.29855H2.62747V4.26142C2.62747 3.36028 3.36028 2.62747 4.26142 2.62747H46.7114C47.6126 2.62747 48.3454 3.36028 48.3454 4.26142V27.1784H44.4042C42.2309 27.1784 40.463 28.9463 40.463 31.1196V32.343L4.26142 32.3435ZM18.7869 16.8158C18.7869 16.0912 19.376 15.5021 20.1006 15.5021C20.8247 15.5021 21.4144 16.0912 21.4144 16.8158C21.4144 17.5399 20.8247 18.1295 20.1006 18.1295C19.376 18.1295 18.7869 17.5399 18.7869 16.8158ZM27.8075 9.19613C27.8075 8.47153 28.3967 7.8824 29.1213 7.8824C29.8459 7.8824 30.435 8.47153 30.435 9.19613C30.435 9.92023 29.8459 10.5099 29.1213 10.5099C28.3967 10.5099 27.8075 9.92023 27.8075 9.19613ZM63.3219 59.3725H53.8656C54.21 59.372 54.5482 59.2314 54.7919 58.9877C55.0362 58.7434 55.1768 58.4042 55.1768 58.0588C55.1768 57.7134 55.0362 57.3742 54.7919 57.13C54.5476 56.8857 54.2084 56.7451 53.8631 56.7451C53.5172 56.7451 53.1785 56.8857 52.9342 57.13C52.6899 57.3742 52.5493 57.7134 52.5493 58.0588C52.5493 58.4042 52.6899 58.7434 52.9342 58.9877C53.178 59.2314 53.5156 59.3715 53.8605 59.3725H44.4042C43.6796 59.3725 43.0905 58.7829 43.0905 58.0588V56.7369H64.6357V58.0588C64.6357 58.7829 64.0466 59.3725 63.3219 59.3725Z" fill="#111F2C"/>
<path d="M52.2129 33.1172H55.0918C55.8146 33.1172 56.4004 32.5309 56.4004 31.8086C56.4004 31.0858 55.8146 30.5 55.0918 30.5H52.2129C51.4901 30.5 50.9043 31.0858 50.9043 31.8086C50.9043 32.5309 51.4901 33.1172 52.2129 33.1172Z" fill="#111F2C"/>
<path d="M45.9 40.6288C45.3888 41.1399 45.3888 41.9685 45.9 42.4797C46.4111 42.9904 47.2398 42.9909 47.7504 42.4797C51.005 39.2256 56.3002 39.2256 59.5543 42.4797C59.8099 42.7353 60.1447 42.8631 60.4796 42.8631C60.8144 42.8631 61.1497 42.7353 61.4048 42.4797C61.9159 41.9685 61.9159 41.1399 61.4048 40.6288C57.1304 36.3544 50.1744 36.3544 45.9 40.6288Z" fill="#111F2C"/>
<path d="M53.6526 42.4087C52.0572 42.4087 50.5574 43.0303 49.4293 44.1579C48.9181 44.6691 48.9181 45.4977 49.4293 46.0089C49.9404 46.52 50.7691 46.52 51.2797 46.0089C51.9136 45.375 52.7565 45.0259 53.6526 45.0259C54.5486 45.0259 55.3916 45.375 56.0254 46.0089C56.281 46.2644 56.6158 46.3922 56.9506 46.3922C57.2854 46.3922 57.6203 46.2644 57.8758 46.0089C58.387 45.4977 58.387 44.6691 57.8758 44.1579C56.7477 43.0303 55.2479 42.4087 53.6526 42.4087Z" fill="#111F2C"/>
<path d="M53.6523 47.1841C53.3083 47.1841 52.9704 47.3241 52.7271 47.568C52.4838 47.8108 52.3438 48.1487 52.3438 48.4927C52.3438 48.8372 52.4838 49.1746 52.7271 49.4179C52.9704 49.6612 53.3083 49.8013 53.6523 49.8013C53.9964 49.8013 54.3342 49.6617 54.5776 49.4179C54.8209 49.1746 54.9609 48.8382 54.9609 48.4927C54.9609 48.1487 54.8209 47.8108 54.5776 47.568C54.3342 47.3241 53.9964 47.1841 53.6523 47.1841Z" fill="#111F2C"/>
<path d="M33.4566 20.0312C31.7508 20.0312 30.296 21.1252 29.7557 22.6484H23.9907C23.6436 22.6484 23.3109 22.7865 23.0655 23.0318L20.8751 25.2217H13.3477C12.6249 25.2217 12.0391 25.808 12.0391 26.5303C12.0391 27.2531 12.6249 27.8389 13.3477 27.8389H21.4175C21.7646 27.8389 22.0973 27.7013 22.3427 27.456L24.5331 25.2656H29.7562C30.296 26.7884 31.7508 27.8828 33.4566 27.8828C35.6214 27.8828 37.3823 26.1213 37.3823 23.957C37.3823 21.7922 35.6214 20.0312 33.4566 20.0312ZM33.4566 25.2656C32.7348 25.2656 32.148 24.6783 32.148 23.957C32.148 23.2353 32.7348 22.6484 33.4566 22.6484C34.1783 22.6484 34.7651 23.2353 34.7651 23.957C34.7651 24.6783 34.1783 25.2656 33.4566 25.2656Z" fill="#111F2C"/>
<path d="M8.375 25.2222C8.03098 25.2222 7.6931 25.3622 7.44978 25.6055C7.20647 25.8489 7.06641 26.1852 7.06641 26.5308C7.06641 26.8748 7.20647 27.2127 7.44978 27.456C7.6931 27.6993 8.03098 27.8394 8.375 27.8394C8.71902 27.8394 9.0569 27.6993 9.30022 27.456C9.54353 27.2127 9.68359 26.8748 9.68359 26.5308C9.68359 26.1862 9.54353 25.8489 9.30022 25.6055C9.0569 25.3622 8.71902 25.2222 8.375 25.2222Z" fill="#111F2C"/>
<path d="M56.0078 9.30078H57.3164V21.7416C57.3164 22.4644 57.9022 23.0502 58.625 23.0502C59.3478 23.0502 59.9336 22.4644 59.9336 21.7416V7.99219C59.9336 7.26939 59.3478 6.68359 58.625 6.68359H56.0078C55.285 6.68359 54.6992 7.26939 54.6992 7.99219C54.6992 8.71447 55.285 9.30078 56.0078 9.30078Z" fill="#111F2C"/>
<path d="M35.7246 56.9331C35.3806 56.9331 35.0427 57.0732 34.7994 57.317C34.5561 57.5598 34.416 57.8977 34.416 58.2417C34.416 58.5862 34.5561 58.9236 34.7994 59.1669C35.0427 59.4102 35.3806 59.5503 35.7246 59.5503C36.0686 59.5503 36.4065 59.4107 36.6498 59.1669C36.8931 58.9236 37.0332 58.5862 37.0332 58.2417C37.0332 57.8977 36.8931 57.5598 36.6498 57.317C36.4065 57.0732 36.0686 56.9331 35.7246 56.9331Z" fill="#111F2C"/>
<path d="M30.8394 56.9336H9.68359V40.1401C9.68359 39.4179 9.09779 38.8315 8.375 38.8315C7.65221 38.8315 7.06641 39.4179 7.06641 40.1401V58.2422C7.06641 58.9645 7.65221 59.5508 8.375 59.5508H30.8394C31.5622 59.5508 32.148 58.9645 32.148 58.2422C32.148 57.5194 31.5622 56.9336 30.8394 56.9336Z" fill="#111F2C"/>
</svg>
