<svg width="62" height="62" viewBox="0 0 62 62" fill="none" xmlns="http://www.w3.org/2000/svg">
<path d="M29.1133 42.5543L28.2021 39.0199C28.0346 38.3696 27.371 37.9789 26.7206 38.1463L24.2249 38.7894C24.0805 38.611 23.9264 38.4375 23.7626 38.2701C23.5987 38.1026 23.4277 37.9462 23.2518 37.7982L23.9421 35.3158C24.1229 34.6678 23.7432 33.997 23.0964 33.8174L19.5802 32.8394C18.9323 32.6598 18.2626 33.0384 18.0818 33.6863L17.3903 36.1736C16.9353 36.2452 16.4863 36.3592 16.0483 36.517L14.2417 34.6764C13.7709 34.1971 13.0005 34.1899 12.5212 34.6607L9.91636 37.2157C9.43707 37.6866 9.42981 38.4569 9.90062 38.9362L11.7072 40.7781C11.5409 41.2124 11.4184 41.6601 11.3371 42.1139L8.83778 42.7581C8.18739 42.9255 7.79553 43.5893 7.963 44.2395L8.87544 47.7739C9.04291 48.4242 9.7065 48.8161 10.3569 48.6475L12.8526 48.0044C12.997 48.1828 13.1511 48.3563 13.3148 48.5237C13.4787 48.6912 13.6497 48.8476 13.8256 48.9957L13.1353 51.4793C12.9545 52.126 13.3342 52.797 13.981 52.9765L17.4972 53.9545C18.145 54.1341 18.8148 53.7555 18.9956 53.1088L19.6872 50.6215C20.1421 50.5487 20.5911 50.4347 21.0291 50.2769L22.8357 52.1175C23.3065 52.5968 24.0769 52.6041 24.5562 52.1345L27.1612 49.5781C27.6405 49.1072 27.6477 48.3368 27.1769 47.8576L25.3703 46.0169C25.5366 45.5814 25.6591 45.1349 25.7404 44.681L28.2397 44.0356C28.8901 43.8683 29.282 43.2047 29.1133 42.5543ZM20.2429 45.1338C19.2844 46.0753 17.7435 46.0608 16.8019 45.101C15.8616 44.1425 15.8761 42.6016 16.8347 41.66C17.7932 40.7197 19.334 40.7342 20.2757 41.6928C21.216 42.6526 21.2014 44.1923 20.2429 45.1338Z" fill="#7D52DC"/>
<path d="M53.9034 18.2261L52.9921 14.6918C52.8247 14.0414 52.1611 13.6495 51.5107 13.8182L49.0149 14.4612C48.8706 14.2829 48.7164 14.1093 48.5527 13.942C48.3889 13.7745 48.2179 13.6181 48.0419 13.47L48.7323 10.9863C48.9131 10.3396 48.5333 9.66871 47.8866 9.48913L44.3704 8.51118C43.7225 8.3316 43.0528 8.71014 42.872 9.3569L42.1804 11.8442C41.7255 11.9169 41.2752 12.031 40.8385 12.1888L39.0319 10.3482C38.561 9.86888 37.7907 9.86161 37.3114 10.3312L34.7064 12.8876C34.2271 13.3584 34.2198 14.1288 34.6907 14.6081L36.4973 16.4487C36.331 16.8843 36.2072 17.3308 36.1272 17.7846L33.6278 18.4301C32.9774 18.5975 32.5856 19.2611 32.753 19.9115L33.6655 23.4459C33.833 24.0962 34.4965 24.4869 35.1469 24.3195L37.6427 23.6764C37.787 23.8548 37.9412 24.0283 38.105 24.1957C38.2688 24.3632 38.4398 24.5196 38.6158 24.6677L37.9254 27.1501C37.7446 27.798 38.1232 28.469 38.7711 28.6485L42.2873 29.6265C42.9341 29.8061 43.605 29.4275 43.7857 28.7796L44.4773 26.2923C44.9323 26.2207 45.3813 26.1067 45.8193 25.949L47.6259 27.7896C48.0967 28.2689 48.8671 28.2762 49.3464 27.8054L51.9513 25.2502C52.4306 24.7794 52.4379 24.009 51.9671 23.5297L50.1605 21.6878C50.3267 21.2535 50.4493 20.8058 50.5293 20.3519L53.0299 19.7077C53.6802 19.5403 54.072 18.8765 53.9034 18.2261ZM45.0329 20.8057C44.0731 21.746 42.5335 21.7314 41.5919 20.7729C40.6504 19.8144 40.6649 18.2735 41.6247 17.3319C42.5832 16.3904 44.1241 16.4049 45.0657 17.3647C46.006 18.3233 45.9915 19.8642 45.0329 20.8057Z" fill="#61C1E3"/>
<path d="M21.1418 40.843C19.7335 39.4081 17.4202 39.3863 15.9855 40.7945C15.2903 41.4768 14.9024 42.3887 14.8932 43.3626C14.884 44.3365 15.2547 45.2557 15.9368 45.9508C16.6191 46.6459 17.531 47.0339 18.505 47.0429C18.5167 47.0431 18.5285 47.0431 18.5402 47.0431C19.501 47.0431 20.4065 46.6731 21.0931 45.9992C22.5283 44.5913 22.5502 42.278 21.1418 40.843C21.1418 40.8431 21.1418 40.8431 21.1418 40.843ZM19.3937 44.2675C19.1611 44.4957 18.8543 44.6179 18.5279 44.6166C18.2021 44.6136 17.8971 44.4838 17.6688 44.2513C17.4406 44.0188 17.3167 43.7113 17.3197 43.3856C17.3227 43.0598 17.4525 42.7548 17.685 42.5265C17.9221 42.2939 18.2308 42.1779 18.5392 42.1779C18.8554 42.1779 19.1715 42.2997 19.4099 42.5428C19.6382 42.7753 19.762 43.0827 19.759 43.4084C19.7559 43.7342 19.6262 44.0393 19.3937 44.2675Z" fill="#111F2C"/>
<path d="M26.7531 45.6927C26.7552 45.6853 26.7571 45.678 26.7591 45.6706L28.543 45.2106C29.8404 44.876 30.6236 43.5482 30.2891 42.251L29.3778 38.7171C29.0432 37.4197 27.7151 36.6365 26.4181 36.971L24.6383 37.43C24.6352 37.4266 24.6318 37.4233 24.6285 37.4199C24.6256 37.4169 24.6225 37.4139 24.6195 37.4107L25.112 35.6399C25.2858 35.0146 25.2059 34.359 24.8867 33.7939C24.5675 33.2288 24.0473 32.8218 23.4219 32.6479L19.9059 31.6703C19.2805 31.4963 18.6249 31.5764 18.0599 31.8956C17.4948 32.2148 17.0879 32.7351 16.9139 33.3603L16.4204 35.1351C16.4129 35.1371 16.4057 35.1389 16.3983 35.1408L15.1079 33.826C14.1694 32.8697 12.628 32.8554 11.6719 33.7938L9.06714 36.3499C8.11099 37.2883 8.09634 38.8297 9.03469 39.7861L10.3251 41.1009C10.323 41.1082 10.3211 41.1156 10.319 41.1228L8.53518 41.5829C7.23791 41.9175 6.45467 43.2451 6.78913 44.5424L7.70036 48.0763C8.03494 49.3736 9.36298 50.1567 10.66 49.8223L12.4398 49.3634C12.4429 49.3665 12.4461 49.3698 12.4492 49.3729C12.4523 49.3761 12.4555 49.3794 12.4586 49.3826L11.9661 51.1535C11.6072 52.4444 12.3654 53.7864 13.6563 54.1454L17.1723 55.123C17.3893 55.1834 17.6074 55.2121 17.8223 55.2121C18.8863 55.212 19.8655 54.5068 20.1644 53.433L20.6579 51.6581C20.6652 51.6562 20.6725 51.6543 20.6799 51.6524L21.9703 52.9672C22.9087 53.9235 24.4501 53.9378 25.4063 52.9996L28.011 50.4434C28.9672 49.5051 28.9818 47.9637 28.0435 47.0073L26.7531 45.6927ZM23.7021 51.2678L21.8955 49.427C21.5633 49.0885 21.0646 48.9746 20.6183 49.1354C20.2565 49.2657 19.8797 49.3622 19.498 49.4224C19.0284 49.4963 18.6453 49.8378 18.5179 50.2958L17.8222 52.7854L14.304 51.8038L14.9946 49.3205C15.0771 49.0233 15.0419 48.6993 14.8974 48.4268C14.7331 48.117 14.4217 47.9189 14.1806 47.6732C13.9573 47.4456 13.7767 47.1545 13.5051 46.9814C13.2234 46.8018 12.8734 46.7458 12.5498 46.8293L10.0501 47.4706L9.14089 43.9328L11.6409 43.2881C12.1013 43.1694 12.4499 42.7927 12.5327 42.3245C12.5998 41.9446 12.7035 41.5696 12.8407 41.2099C13.0097 40.7668 12.9052 40.266 12.5732 39.9275L10.7666 38.0822L13.3759 35.526L15.1825 37.3669C15.5145 37.7053 16.0137 37.8193 16.4595 37.6586C16.8216 37.5282 17.1985 37.4317 17.5798 37.3716C18.0495 37.2976 18.4326 36.9561 18.56 36.4982L19.2557 34.0086L22.774 34.9902L22.0834 37.4735C21.9562 37.9308 22.1075 38.4203 22.4704 38.7262C22.6233 38.855 22.7668 38.9876 22.897 39.1202C22.8971 39.1203 22.8974 39.1204 22.8975 39.1207C23.0284 39.254 23.1547 39.3959 23.2833 39.5544C23.5825 39.9229 24.0687 40.0829 24.5284 39.9646L27.0281 39.3233L27.9373 42.861L25.4373 43.5057C24.9769 43.6244 24.6283 44.0011 24.5454 44.4694C24.4784 44.8493 24.3747 45.2243 24.2375 45.5839C24.0685 46.027 24.173 46.5279 24.505 46.8663L26.3116 48.7117L23.7021 51.2678Z" fill="#111F2C"/>
<path d="M43.3633 15.4226C43.3516 15.4225 43.3398 15.4225 43.3279 15.4225C42.3672 15.4225 41.4616 15.7924 40.775 16.4663C40.0798 17.1486 39.692 18.0605 39.6828 19.0345C39.6737 20.0084 40.0442 20.9276 40.7265 21.6227C41.4394 22.3492 42.3839 22.7133 43.3291 22.7133C44.2513 22.7133 45.1744 22.3666 45.8828 21.6712C46.578 20.9889 46.9658 20.0768 46.975 19.103C46.9842 18.129 46.6136 17.2098 45.9315 16.5147C45.2493 15.8197 44.3374 15.4317 43.3633 15.4226ZM44.1835 19.9393C43.7035 20.4102 42.9299 20.4032 42.4586 19.923C42.2303 19.6905 42.1063 19.3831 42.1094 19.0572C42.1124 18.7315 42.2422 18.4265 42.4748 18.1982C42.7044 17.9727 43.0073 17.849 43.3288 17.849H43.3405C43.6664 17.852 43.9714 17.9818 44.1996 18.2143H44.1997C44.428 18.4468 44.5518 18.7543 44.5488 19.08C44.5457 19.406 44.4158 19.711 44.1835 19.9393Z" fill="#111F2C"/>
<path d="M52.8336 22.6793L51.5433 21.3644C51.5453 21.357 51.5473 21.3498 51.5493 21.3424L53.3331 20.8824C54.6304 20.5478 55.4136 19.2201 55.0792 17.9228L54.168 14.389C53.8334 13.0916 52.5052 12.3083 51.2083 12.6429L49.4285 13.1019C49.4255 13.0987 49.4223 13.0954 49.4192 13.0923C49.416 13.0891 49.4129 13.0859 49.4097 13.0826L49.9022 11.3119C50.076 10.6865 49.9959 10.0309 49.6767 9.46578C49.3575 8.90076 48.8373 8.49376 48.212 8.31987L44.6959 7.34228C44.0708 7.16827 43.415 7.24844 42.85 7.56764C42.2848 7.88684 41.8779 8.40706 41.7039 9.03226L41.2105 10.8071C41.2031 10.8091 41.1958 10.8109 41.1884 10.8128L39.8981 9.49799C38.9597 8.54171 37.4183 8.5273 36.462 9.46566L33.8573 12.0218C33.394 12.4764 33.1356 13.0842 33.1294 13.7331C33.1232 14.3821 33.3703 14.9947 33.8249 15.458L35.1152 16.7728C35.1132 16.7801 35.1112 16.7875 35.1092 16.7948L33.3253 17.2549C32.0279 17.5895 31.2447 18.9173 31.5792 20.2145L32.4905 23.7484C32.8251 25.0459 34.153 25.8289 35.4502 25.4944L37.2299 25.0355C37.233 25.0388 37.2362 25.042 37.2393 25.0452C37.2425 25.0483 37.2456 25.0516 37.2488 25.0548L36.7563 26.8255C36.3974 28.1164 37.1555 29.4584 38.4464 29.8174L41.9625 30.7951C42.1795 30.8555 42.3977 30.8842 42.6126 30.8842C43.6765 30.8841 44.6558 30.1789 44.9544 29.105L45.4479 27.3302C45.4553 27.3283 45.4627 27.3265 45.4701 27.3245L46.7604 28.6394C47.6988 29.5955 49.2403 29.6101 50.1965 28.6717L52.8012 26.1154C53.7573 25.1769 53.772 23.6355 52.8336 22.6793ZM48.4924 26.9396L46.6858 25.0987C46.3538 24.7604 45.8549 24.6464 45.4087 24.807C45.0466 24.9374 44.6696 25.0339 44.2884 25.094C43.8186 25.168 43.4354 25.5095 43.308 25.9676L42.6125 28.4571L39.0942 27.4755L39.7848 24.9923C39.8674 24.6951 39.8322 24.3711 39.6877 24.0986C39.5234 23.7888 39.2122 23.591 38.9712 23.3454C38.7477 23.1177 38.5671 22.8264 38.2954 22.6531C38.0138 22.4735 37.6636 22.4175 37.3401 22.501L34.8403 23.1423L33.9312 19.6046L36.4311 18.9599C36.8915 18.8412 37.2402 18.4645 37.323 17.9962C37.3901 17.6163 37.4937 17.2414 37.6309 16.8815C37.8 16.4385 37.6955 15.9376 37.3634 15.5992L35.5568 13.7538L38.1661 11.1977L39.9726 13.0385C40.3047 13.3769 40.8037 13.4909 41.2498 13.3302C41.6118 13.1998 41.9887 13.1033 42.3701 13.0431C42.8398 12.9691 43.2228 12.6277 43.3502 12.1697L44.0458 9.68024L47.5641 10.6618L46.8735 13.1451C46.7464 13.6025 46.8976 14.0919 47.2605 14.3978C47.4135 14.5266 47.557 14.6592 47.6872 14.7918C47.8173 14.9246 47.9474 15.0706 48.0733 15.226C48.3725 15.5946 48.8591 15.7547 49.3185 15.6363L51.8183 14.995L52.7274 18.5328L50.2275 19.1775C49.7671 19.2962 49.4184 19.6729 49.3356 20.1411C49.2685 20.5209 49.1649 20.8959 49.0277 21.2558C48.8586 21.6989 48.9631 22.1997 49.2952 22.5382L51.1017 24.3835L48.4924 26.9396Z" fill="#111F2C"/>
<path d="M56.1008 5.5558C52.6499 2.03961 48.0298 0.06651 43.0915 2.96552e-05C42.4204 -0.0045719 41.8709 0.526908 41.8619 1.19692C41.853 1.86693 42.3887 2.41742 43.0588 2.42638C47.3528 2.48414 51.3693 4.19907 54.3687 7.25547C57.3856 10.3297 59.0248 14.4017 58.9842 18.7216C58.9436 23.0415 57.2282 27.082 54.154 30.0988C54.0316 30.2189 53.906 30.3383 53.7808 30.4537C53.2881 30.9077 53.2565 31.6753 53.7104 32.1682C53.9497 32.4279 54.2758 32.5594 54.6033 32.5594C54.8972 32.5594 55.1918 32.4533 55.425 32.2385C55.5689 32.106 55.7131 31.9688 55.8537 31.8309C63.1658 24.655 63.2767 12.8682 56.1008 5.5558Z" fill="#111F2C"/>
<path d="M44.6175 34.6179C39.6479 35.1629 34.7977 33.4373 31.3104 29.884C25.5862 24.0512 25.1961 14.9438 30.0809 8.66215L30.0681 10.2561C30.0628 10.9261 30.6016 11.4737 31.2717 11.479H31.2816C31.947 11.479 32.4893 10.9422 32.4947 10.2755L32.5326 5.55247C32.5378 4.89227 32.0143 4.34904 31.3544 4.33003L26.545 4.1909C25.8792 4.17019 25.3165 4.69876 25.2971 5.36865C25.2779 6.03842 25.8051 6.59715 26.4749 6.61652L28.5638 6.67695C23.8977 12.2694 23.0275 19.9966 25.9842 26.3875C23.7304 25.4091 21.2801 24.8829 18.746 24.859C18.6857 24.8584 18.6261 24.8582 18.5659 24.8582C13.6651 24.8582 9.05124 26.7403 5.55745 30.1691C-1.75478 37.345 -1.86559 49.1318 5.3103 56.4441C8.7611 59.9604 13.3813 61.9335 18.3196 61.9999C18.3252 61.9999 18.3308 62 18.3363 62C18.9988 62 19.5402 61.4674 19.5492 60.803C19.5582 60.1329 19.0224 59.5825 18.3523 59.5735C14.0583 59.5157 10.0418 57.8008 7.04242 54.7444C4.02549 51.6702 2.38637 47.5982 2.42694 43.2783C2.4675 38.9584 4.18291 34.9179 7.25712 31.901C10.3314 28.884 14.4043 27.249 18.7233 27.2855C23.0431 27.3262 27.0838 29.0415 30.1006 32.1158C35.8248 37.9486 36.2148 47.0561 31.33 53.3377L31.3429 51.7437C31.3482 51.0737 30.8093 50.5261 30.1393 50.5208C30.136 50.5208 30.1328 50.5208 30.1294 50.5208C29.464 50.5208 28.9217 51.0576 28.9163 51.7243L28.8784 56.4473C28.8732 57.1076 29.3966 57.6508 30.0566 57.6698L34.866 57.8089C34.8779 57.8093 34.8898 57.8094 34.9018 57.8094C35.5555 57.8094 36.0948 57.2891 36.1139 56.6312C36.1333 55.9614 35.606 55.4027 34.9362 55.3833L32.8473 55.3229C37.5132 49.7308 38.3835 42.0043 35.4275 35.6136C37.7355 36.617 40.2406 37.1438 42.8102 37.1437C43.4969 37.1437 44.1889 37.1062 44.8822 37.0301C45.5483 36.9571 46.0291 36.3579 45.9561 35.6918C45.8827 35.0257 45.2829 34.5447 44.6175 34.6179Z" fill="#111F2C"/>
<path d="M49.9917 35.5782C50.6605 35.5782 51.2026 35.0361 51.2026 34.3673C51.2026 33.6985 50.6605 33.1564 49.9917 33.1564C49.3229 33.1564 48.7808 33.6985 48.7808 34.3673C48.7808 35.0361 49.3229 35.5782 49.9917 35.5782Z" fill="#111F2C"/>
</svg>
