<svg width="71" height="62" viewBox="0 0 71 62" fill="none" xmlns="http://www.w3.org/2000/svg">
<path d="M7.31667 5.12743C7.31667 6.76202 5.99144 8.08726 4.35631 8.08726C2.72172 8.08726 1.39648 6.76202 1.39648 5.12743C1.39648 3.49284 2.72172 2.1676 4.35631 2.1676C5.99144 2.1676 7.31667 3.49284 7.31667 5.12743Z" fill="#F9F9F9"/>
<path d="M23.2836 16.999C24.2833 16.999 25.2065 17.532 25.705 18.397L30.0132 25.8747C30.48 26.6847 30.5613 27.6597 30.2358 28.536L25.56 41.1142H15.1796L10.5038 28.536C10.1783 27.6597 10.2597 26.6842 10.7264 25.8747L15.0347 18.397C15.5332 17.532 16.4564 16.999 17.4561 16.999H23.2836Z" fill="#D7D6D8"/>
<path d="M12.1118 41.1143H28.6275V47.3551H12.1118V41.1143Z" fill="#B3B0B5"/>
<path d="M26.8363 60.5411H13.9035L9.98975 47.355H30.75L26.8363 60.5411Z" fill="#7D52DC"/>
<path d="M23.3303 28.6534C23.3303 30.288 22.0051 31.6133 20.3705 31.6133C18.7359 31.6133 17.4106 30.288 17.4106 28.6534C17.4106 27.0188 18.7359 25.6936 20.3705 25.6936C22.0051 25.6936 23.3303 27.0188 23.3303 28.6534Z" fill="#F9F9F9"/>
<path d="M39.343 5.12743C39.343 6.76202 38.0177 8.08726 36.3832 8.08726C34.7486 8.08726 33.4233 6.76202 33.4233 5.12743C33.4233 3.49284 34.7486 2.1676 36.3832 2.1676C38.0177 2.1676 39.343 3.49284 39.343 5.12743Z" fill="#F9F9F9"/>
<path d="M16.5771 1.33447H24.1626V8.92051H16.5771V1.33447Z" fill="#79B2FF"/>
<path d="M56.9606 5.35535L66.2814 22.5301H47.6392L56.9606 5.35535Z" fill="#91D9B9"/>
<path d="M59.9206 5.35546C59.9206 6.99004 58.5954 8.31528 56.9608 8.31528C55.3257 8.31528 54.001 6.99004 54.001 5.35546C54.001 3.72087 55.3257 2.39563 56.9608 2.39563C58.5954 2.39563 59.9206 3.72087 59.9206 5.35546Z" fill="#F9F9F9"/>
<path d="M50.5989 22.3949C50.5989 24.0295 49.2736 25.3547 47.639 25.3547C46.0044 25.3547 44.6792 24.0295 44.6792 22.3949C44.6792 20.7603 46.0044 19.4351 47.639 19.4351C49.2736 19.4351 50.5989 20.7603 50.5989 22.3949Z" fill="#F9F9F9"/>
<path d="M69.2409 22.3949C69.2409 24.0295 67.9157 25.3547 66.2811 25.3547C64.6465 25.3547 63.3213 24.0295 63.3213 22.3949C63.3213 20.7603 64.6465 19.4351 66.2811 19.4351C67.9157 19.4351 69.2409 20.7603 69.2409 22.3949Z" fill="#F9F9F9"/>
<path d="M46.9595 37.8284H66.284V57.5555H46.9595V37.8284Z" fill="#61C1E3"/>
<path d="M69.2429 38.1684C69.2429 39.803 67.9177 41.1283 66.2831 41.1283C64.648 41.1283 63.3228 39.803 63.3228 38.1684C63.3228 36.5339 64.648 35.2086 66.2831 35.2086C67.9177 35.2086 69.2429 36.5339 69.2429 38.1684Z" fill="#F9F9F9"/>
<path d="M49.8376 38.1684C49.8376 39.803 48.5129 41.1283 46.8778 41.1283C45.2432 41.1283 43.918 39.803 43.918 38.1684C43.918 36.5339 45.2432 35.2086 46.8778 35.2086C48.5129 35.2086 49.8376 36.5339 49.8376 38.1684Z" fill="#F9F9F9"/>
<path d="M69.2429 57.556C69.2429 59.1906 67.9177 60.5158 66.2831 60.5158C64.648 60.5158 63.3228 59.1906 63.3228 57.556C63.3228 55.9209 64.648 54.5962 66.2831 54.5962C67.9177 54.5962 69.2429 55.9209 69.2429 57.556Z" fill="#F9F9F9"/>
<path d="M49.8376 57.556C49.8376 59.1906 48.5129 60.5158 46.8778 60.5158C45.2432 60.5158 43.918 59.1906 43.918 57.556C43.918 55.9209 45.2432 54.5962 46.8778 54.5962C48.5129 54.5962 49.8376 55.9209 49.8376 57.556Z" fill="#F9F9F9"/>
<path d="M30.7498 46.0201H30.0244V41.216C30.0244 40.4448 29.3992 39.8196 28.628 39.8196H27.5679L31.5452 29.1029C32.0168 27.8321 31.8998 26.4298 31.224 25.2549L26.9152 17.7648C26.1699 16.4692 24.7784 15.6641 23.2839 15.6641H17.4559C15.9609 15.6641 14.5693 16.4692 13.824 17.7648L9.51522 25.2549C8.83994 26.4298 8.72245 27.8321 9.19402 29.1029L13.1714 39.8191H12.1118C11.3406 39.8191 10.7149 40.4442 10.7149 41.216V46.0201H9.98949C9.07977 46.0201 8.39047 46.9379 8.65077 47.8142L12.5645 61.0003C12.7402 61.5931 13.2851 62 13.9032 62H26.836C27.4542 62 27.999 61.5931 28.1747 61.0003L32.0885 47.8142C32.3477 46.9422 31.6638 46.0201 30.7498 46.0201ZM20.3699 27.1525C21.2316 27.1525 21.9328 27.8537 21.9328 28.7154C21.9328 29.5777 21.2316 30.2789 20.3699 30.2789C19.5076 30.2789 18.8064 29.5777 18.8064 28.7154C18.8064 27.8537 19.5076 27.1525 20.3699 27.1525ZM11.8127 28.1307C11.6311 27.6413 11.6763 27.1002 11.9367 26.6475L16.2454 19.158C16.7806 18.2272 18.0713 18.4579 18.973 18.4579V24.5899C17.2543 25.1736 16.0132 26.8017 16.0132 28.7154C16.0132 31.118 17.9673 33.0722 20.3699 33.0722C22.7719 33.0722 24.7261 31.118 24.7261 28.7154C24.7261 26.8017 23.4855 25.1736 21.7663 24.5899V18.4579C22.7067 18.4579 23.9015 18.2364 24.4944 19.158L28.8026 26.6475C29.0629 27.1002 29.1082 27.6408 28.9265 28.1307L24.5881 39.8191H16.1511L11.8127 28.1307ZM13.5082 42.6124H27.2311V46.0201H13.5082V42.6124ZM28.8737 48.8301L25.7937 59.2067H21.7663V57.6179C21.7663 55.8243 18.973 55.8222 18.973 57.6179V59.2067H14.9455L11.8655 48.8301H28.8737Z" fill="#111F2C"/>
<path d="M36.3834 0.833192C34.4697 0.833192 32.8416 2.07382 32.2579 3.79302H25.5595V1.39638C25.5595 0.625163 24.9343 0 24.1631 0H16.5771C15.8059 0 15.1802 0.625163 15.1802 1.39638V3.79302H8.48228C7.89862 2.07382 6.2705 0.833192 4.35674 0.833192C1.95417 0.833192 0 2.78737 0 5.18939C0 7.59196 1.95417 9.54614 4.3562 9.54614C6.2705 9.54614 7.89862 8.30497 8.48228 6.58631H15.1802V8.98241C15.1802 9.75363 15.8059 10.3793 16.5771 10.3793H24.1626C24.9338 10.3793 25.5595 9.75363 25.5595 8.98241V6.58631H32.2574C32.841 8.30497 34.4691 9.54614 36.3834 9.54614C38.7855 9.54614 40.7396 7.59196 40.7396 5.18939C40.7396 2.78737 38.7855 0.833192 36.3834 0.833192ZM4.3562 6.75284C3.49445 6.75284 2.7933 6.05169 2.7933 5.18939C2.7933 4.32764 3.49445 3.62649 4.3562 3.62649C5.2185 3.62649 5.91965 4.32764 5.91965 5.18939C5.91965 6.05169 5.2185 6.75284 4.3562 6.75284ZM22.7662 7.58603H17.9734V2.79329H22.7662V7.58603ZM36.3834 6.75284C35.5211 6.75284 34.82 6.05169 34.82 5.18939C34.82 4.32764 35.5211 3.62649 36.3834 3.62649C37.2452 3.62649 37.9463 4.32764 37.9463 5.18939C37.9463 6.05169 37.2452 6.75284 36.3834 6.75284Z" fill="#111F2C"/>
<path d="M47.6389 26.8136C49.5026 26.8136 51.0951 25.6376 51.717 23.989H62.2036C62.825 25.6376 64.4181 26.8136 66.2812 26.8136C68.6832 26.8136 70.6374 24.8589 70.6374 22.4568C70.6374 19.7686 68.1136 17.6797 65.4739 18.1766L60.1546 8.37557C60.8751 7.59843 61.3165 6.55882 61.3165 5.41736C61.3165 3.01533 59.3623 1.06116 56.9603 1.06116C54.5577 1.06116 52.6036 3.01533 52.6036 5.41736C52.6036 6.55828 53.045 7.59789 53.7655 8.37557L48.4462 18.1766C45.8065 17.6797 43.2827 19.7686 43.2827 22.4568C43.2827 24.8589 45.2369 26.8136 47.6389 26.8136ZM56.9603 9.7741C57.2125 9.7741 57.4599 9.75093 57.7003 9.70997L63.0406 19.5493C62.6197 20.0176 62.2985 20.5781 62.1114 21.1957H51.8086C51.6216 20.5781 51.3004 20.0176 50.8795 19.5493L56.2198 9.70943C56.4602 9.75093 56.7076 9.7741 56.9603 9.7741ZM67.8441 22.4568C67.8441 23.3191 67.1429 24.0203 66.2812 24.0203C65.4194 24.0203 64.7177 23.3191 64.7177 22.4568C64.7177 21.5951 65.4189 20.8939 66.2812 20.8939C67.1429 20.8939 67.8441 21.5951 67.8441 22.4568ZM56.9603 3.85445C57.8221 3.85445 58.5232 4.55561 58.5232 5.41736C58.5232 6.27966 57.8221 6.98081 56.9603 6.98081C56.098 6.98081 55.3969 6.27966 55.3969 5.41736C55.3969 4.55561 56.098 3.85445 56.9603 3.85445ZM47.6389 20.8939C48.5012 20.8939 49.2024 21.5951 49.2024 22.4568C49.2024 23.3191 48.5012 24.0203 47.6389 24.0203C46.7772 24.0203 46.076 23.3191 46.076 22.4568C46.076 21.5951 46.7772 20.8939 47.6389 20.8939Z" fill="#111F2C"/>
<path d="M67.6795 53.4924V42.3559C69.3981 41.7728 70.6393 40.1441 70.6393 38.2303C70.6393 35.8283 68.6851 33.8741 66.2831 33.8741C64.4976 33.8741 62.9611 34.9536 62.2885 36.4939H50.8723C50.1997 34.9536 48.6632 33.8741 46.8777 33.8741C44.4757 33.8741 42.5215 35.8283 42.5215 38.2303C42.5215 40.1748 43.802 41.825 45.5633 42.3839V42.406C45.5633 43.1772 46.1884 43.8024 46.9597 43.8024C47.7654 43.8024 48.3652 43.1088 48.3566 42.3284C49.7088 41.839 50.751 40.6981 51.1041 39.2872H62.0568C62.4163 40.7267 63.4941 41.8838 64.8862 42.3559V53.4924C63.6057 53.9268 62.592 54.9411 62.157 56.221H51.0033C50.5781 54.9686 49.5983 53.9694 48.356 53.5199C48.3571 52.7535 47.7438 52.088 46.9597 52.088C46.1954 52.088 45.5751 52.7023 45.5638 53.4644C43.802 54.0227 42.521 55.6735 42.521 57.618C42.521 60.02 44.4757 61.9742 46.8777 61.9742C48.7915 61.9742 50.4196 60.7335 51.0033 59.0143H62.157C62.7407 60.7335 64.3688 61.9742 66.2826 61.9742C68.6846 61.9742 70.6388 60.02 70.6388 57.618C70.6393 55.7042 69.3981 54.0755 67.6795 53.4924ZM46.8777 39.7938C46.016 39.7938 45.3148 39.0926 45.3148 38.2303C45.3148 37.3686 46.016 36.6674 46.8777 36.6674C47.74 36.6674 48.4412 37.3686 48.4412 38.2303C48.4412 39.0926 47.74 39.7938 46.8777 39.7938ZM66.2831 36.6674C67.1449 36.6674 67.846 37.3686 67.846 38.2303C67.846 39.0926 67.1449 39.7938 66.2831 39.7938C65.4208 39.7938 64.7197 39.0926 64.7197 38.2303C64.7197 37.3686 65.4208 36.6674 66.2831 36.6674ZM46.8777 59.1809C46.016 59.1809 45.3148 58.4797 45.3148 57.618C45.3148 56.7557 46.016 56.0545 46.8777 56.0545C47.74 56.0545 48.4412 56.7557 48.4412 57.618C48.4412 58.4797 47.74 59.1809 46.8777 59.1809ZM66.2831 59.1809C65.4208 59.1809 64.7197 58.4797 64.7197 57.618C64.7197 56.7557 65.4208 56.0545 66.2831 56.0545C67.1449 56.0545 67.846 56.7557 67.846 57.618C67.846 58.4797 67.1449 59.1809 66.2831 59.1809Z" fill="#111F2C"/>
<path d="M46.4239 49.2143C47.1256 49.507 47.9561 49.1583 48.246 48.4582C48.5365 47.7565 48.1953 46.9271 47.492 46.635C46.7903 46.344 45.9582 46.6889 45.6677 47.3906C45.3772 48.095 45.7216 48.9222 46.4239 49.2143Z" fill="#111F2C"/>
<path d="M21.1456 50.9589C20.4902 50.5223 19.5773 50.7304 19.1731 51.4035C18.7802 52.0578 19.0011 52.926 19.6538 53.3167C20.3118 53.7107 21.1951 53.4854 21.5789 52.8182C21.9437 52.1844 21.7443 51.3695 21.1456 50.9589Z" fill="#111F2C"/>
</svg>
