<svg width="466" height="321" viewBox="0 0 466 321" fill="none" xmlns="http://www.w3.org/2000/svg">
<path opacity="0.3" d="M296.567 248.813C298.184 258.351 291.762 267.469 282.125 268.309C259.758 270.256 237.188 268.709 215.232 263.69C187.574 257.367 161.432 245.658 138.299 229.232C115.166 212.806 95.4948 191.984 80.4087 167.956C68.4327 148.881 59.5323 128.083 53.9989 106.324C51.6146 96.9479 58.1064 87.8798 67.6446 86.2627C77.1827 84.6455 86.1423 91.0993 88.6735 100.437C93.3453 117.671 100.55 134.15 110.079 149.327C122.719 169.459 139.2 186.904 158.582 200.667C177.964 214.429 199.866 224.239 223.04 229.537C240.509 233.531 258.443 234.901 276.254 233.631C285.903 232.943 294.95 239.275 296.567 248.813Z" fill="#8048DB"/>
<path opacity="0.3" d="M287.849 299.969C289.693 307.963 284.712 315.986 276.619 317.326C242.96 322.903 208.435 321.178 175.4 312.2C137.579 301.92 102.886 282.451 74.4078 255.523C45.9297 228.596 24.5498 195.046 12.1708 157.859C1.35852 125.379 -2.29406 91.0036 1.39063 57.0861C2.27662 48.9306 10.0085 43.5084 18.0927 44.9018C26.177 46.2952 31.5451 53.9776 30.7319 62.1406C27.835 91.2204 31.0922 120.643 40.3574 148.476C51.1897 181.017 69.8982 210.375 94.8181 233.938C119.738 257.5 150.096 274.538 183.192 283.533C211.499 291.227 241.059 292.833 269.931 288.314C278.036 287.045 286.006 291.975 287.849 299.969Z" fill="#8048DB"/>
<path opacity="0.3" d="M315.116 318C323.4 318 330.116 311.284 330.116 303C330.116 294.716 323.4 288 315.116 288C306.832 288 300.116 294.716 300.116 303C300.116 311.284 306.832 318 315.116 318Z" fill="#8048DB"/>
<path opacity="0.3" d="M20.1157 30C28.4 30 35.1157 23.2843 35.1157 15C35.1157 6.71573 28.4 0 20.1157 0C11.8315 0 5.11572 6.71573 5.11572 15C5.11572 23.2843 11.8315 30 20.1157 30Z" fill="#8048DB"/>
<path opacity="0.3" d="M451.116 290H355.116C347.384 290 341.116 296.268 341.116 304C341.116 311.732 347.384 318 355.116 318H451.116C458.848 318 465.116 311.732 465.116 304C465.116 296.268 458.848 290 451.116 290Z" fill="#8048DB"/>
</svg>
