<svg width="11" height="9" viewBox="0 0 11 9" fill="none" xmlns="http://www.w3.org/2000/svg">
<path d="M10.499 1.047C10.1073 1.22744 9.69002 1.34618 9.262 1.399C9.71592 1.11417 10.0521 0.675403 10.209 0.163C9.78768 0.42194 9.32439 0.605358 8.84 0.705C8.64243 0.483636 8.40039 0.30643 8.12969 0.18495C7.85899 0.0634704 7.56571 0.000448921 7.269 0C6.069 0 5.115 1 5.115 2.234C5.11483 2.40521 5.13361 2.57592 5.171 2.743C3.379 2.65 1.793 1.76 0.731 0.408C0.538797 0.750982 0.438552 1.13784 0.44 1.531C0.44 2.306 0.82 2.991 1.398 3.391C1.05466 3.37891 0.719532 3.28276 0.422 3.111V3.139C0.422 4.221 1.165 5.124 2.15 5.339C1.9651 5.39072 1.774 5.41696 1.582 5.417C1.442 5.417 1.308 5.403 1.177 5.375C1.451 6.263 2.247 6.909 3.189 6.927C2.43447 7.54486 1.48923 7.88232 0.514 7.882C0.34 7.882 0.169 7.872 0 7.852C0.976669 8.507 2.12603 8.85682 3.302 8.857C7.264 8.857 9.43 5.453 9.43 2.5L9.423 2.2C9.84877 1.88357 10.2137 1.49258 10.5 1.046L10.499 1.047Z" fill="white"/>
</svg>
